<svg width="17" height="21" viewBox="0 0 17 21" fill="none" xmlns="http://www.w3.org/2000/svg">
<g clip-path="url(#clip0_677_12724)">
<path d="M11.9859 0H2.14754C1.70789 0 1.35156 0.356325 1.35156 0.795977V20.2042C1.35156 20.6438 1.70789 21.0002 2.14754 21.0002H15.5558C15.9954 21.0002 16.3517 20.6438 16.3517 20.2042V4.3328L11.9859 0Z" fill="#DBDBDB"/>
<g style="mix-blend-mode:multiply" opacity="0.17">
<path d="M12.2656 3.64415C12.2656 4.1373 12.6654 4.5369 13.1585 4.5369H16.3525V4.3328L12.2656 0.204102V3.64415Z" fill="#333333"/>
</g>
<path d="M11.9863 3.44004C11.9863 3.93319 12.3861 4.3328 12.8792 4.3328H16.3522L11.9863 0V3.44004Z" fill="#F2F2F2"/>
<path d="M14.2653 10.5001H3.43856C3.33766 10.5001 3.25586 10.5819 3.25586 10.6828V11.3338C3.25586 11.4347 3.33766 11.5165 3.43856 11.5165H14.2653C14.3662 11.5165 14.448 11.4347 14.448 11.3338V10.6828C14.448 10.5819 14.3662 10.5001 14.2653 10.5001Z" fill="white"/>
<path d="M14.2653 12.3905H3.43856C3.33766 12.3905 3.25586 12.4723 3.25586 12.5732V13.2242C3.25586 13.3251 3.33766 13.4069 3.43856 13.4069H14.2653C14.3662 13.4069 14.448 13.3251 14.448 13.2242V12.5732C14.448 12.4723 14.3662 12.3905 14.2653 12.3905Z" fill="white"/>
<path d="M3.43856 14.2809H14.2651C14.366 14.2809 14.4478 14.3628 14.4478 14.4636V15.1145C14.4478 15.2153 14.366 15.2972 14.2651 15.2972H3.43856C3.33773 15.2972 3.25586 15.2153 3.25586 15.1145V14.4636C3.25586 14.3628 3.33773 14.2809 3.43856 14.2809Z" fill="white"/>
<path d="M14.2653 16.1713H3.43856C3.33766 16.1713 3.25586 16.2531 3.25586 16.354V17.005C3.25586 17.1059 3.33766 17.1877 3.43856 17.1877H14.2653C14.3662 17.1877 14.448 17.1059 14.448 17.005V16.354C14.448 16.2531 14.3662 16.1713 14.2653 16.1713Z" fill="white"/>
<path d="M14.2653 18.0615H3.43856C3.33766 18.0615 3.25586 18.1433 3.25586 18.2442V18.8953C3.25586 18.9962 3.33766 19.078 3.43856 19.078H14.2653C14.3662 19.078 14.448 18.9962 14.448 18.8953V18.2442C14.448 18.1433 14.3662 18.0615 14.2653 18.0615Z" fill="white"/>
<path d="M0 8.73985L1.35105 9.81369V8.73985H0Z" fill="#BB2626"/>
<path d="M9.97386 3.57962H1.01321C0.453593 3.57962 0 4.03322 0 4.59283V8.73969H9.97386C10.4664 8.73969 10.8656 8.3404 10.8656 7.8479V4.47125C10.8656 3.97875 10.4664 3.57946 9.97386 3.57946V3.57962Z" fill="#F93232"/>
<path d="M3.76189 5.80141C3.76189 6.28808 3.38416 6.70568 2.7704 6.70568H2.42186V7.44297H1.72461V4.90071H2.77056C3.38433 4.90071 3.76205 5.31475 3.76205 5.80141H3.76189ZM3.13354 5.80141C3.13354 5.64157 3.04275 5.48902 2.74495 5.48902H2.4217V6.11737H2.74495C3.04275 6.11737 3.13354 5.96126 3.13354 5.80141Z" fill="white"/>
<path d="M6.64954 6.17149C6.64954 6.85431 6.1846 7.44262 5.23672 7.44262H4.23438V4.90036H5.23672C6.18816 4.90036 6.64954 5.48867 6.64954 6.17149ZM6.00303 6.17149C6.00303 5.79377 5.77056 5.48867 5.18955 5.48867H4.92806V6.85415H5.18955C5.77056 6.85415 6.00303 6.54549 6.00303 6.17133V6.17149Z" fill="white"/>
<path d="M7.81834 5.48867V5.87726H8.84614V6.46557H7.81834V7.44246H7.12109V4.9002H8.95881V5.48851H7.81851L7.81834 5.48867Z" fill="white"/>
</g>
<defs>
<clipPath id="clip0_677_12724">
<rect width="16.3511" height="21" fill="white"/>
</clipPath>
</defs>
</svg>
