<svg width="28" height="20" viewBox="0 0 20 20" fill="none" xmlns="http://www.w3.org/2000/svg">
<g clip-path="url(#clip0_1738_5496)">
<path d="M13.3865 10.0005L19.2984 4.08901C20.2339 3.15358 20.2339 1.63715 19.2984 0.702193C18.3639 -0.232762 16.8466 -0.232762 15.9121 0.702193L10.0001 6.61464L4.08816 0.702193C3.15368 -0.232762 1.6363 -0.232762 0.70182 0.702193C-0.233614 1.63763 -0.233614 3.15406 0.70182 4.08901L6.6133 10.0005L0.70182 15.912C-0.233614 16.8474 -0.233614 18.3638 0.70182 19.2988C1.16882 19.7668 1.78238 20 2.39499 20C3.00712 20 3.62116 19.7668 4.08816 19.2988L10.0001 13.3873L15.9121 19.2993C16.3796 19.7672 16.9926 20.0005 17.6053 20.0005C18.2179 20.0005 18.8314 19.7672 19.2984 19.2993C20.2339 18.3638 20.2339 16.8474 19.2984 15.9125L13.3865 10.0005Z" fill="#e74c3c"/>
</g>
<defs>
<clipPath id="clip0_1738_5496">
<rect width="20" height="20" fill="white"/>
</clipPath>
</defs>
</svg>
