<svg width="20" height="20" viewBox="0 0 21 21" fill="none" xmlns="http://www.w3.org/2000/svg">
<path d="M10.27 20.27C15.7929 20.27 20.27 15.7929 20.27 10.27C20.27 4.74717 15.7929 0.27002 10.27 0.27002C4.74717 0.27002 0.27002 4.74717 0.27002 10.27C0.27002 15.7929 4.74717 20.27 10.27 20.27Z" fill="#012169"/>
<path d="M18.4487 12.3015C18.3753 10.8342 17.8617 9.09185 17.4398 8.10145C17.0179 7.11083 15.8908 5.55374 15.3122 5.46021C14.8965 5.39301 14.5419 5.41738 13.3925 5.46021C12.2429 5.50305 12.1575 5.79651 12.1453 5.94334C12.1329 6.09011 12.5366 6.32232 12.8667 6.68909C13.1969 7.05578 14.126 8.71876 14.3708 9.57476C14.6155 10.4308 14.8355 11.1889 14.9089 12.5582C14.9822 13.9276 14.8721 14.6981 15.0922 14.9548C15.3122 15.2116 18.1247 15.0894 18.3448 14.9548C18.5647 14.8204 18.5219 13.7688 18.4487 12.3015Z" fill="white"/>
<path d="M12.9364 8.10145C12.5145 7.11083 11.3873 5.55374 10.8088 5.46021C10.3931 5.39301 10.0384 5.41738 8.88901 5.46021C7.73933 5.50305 7.6541 5.79651 7.64188 5.94334C7.62952 6.09011 8.03301 6.32232 8.36319 6.68909C8.69337 7.05578 9.62261 8.71876 9.86726 9.57476C10.1118 10.4308 10.3319 11.1889 10.4054 12.5582C10.4787 13.9276 10.3686 14.6981 10.5886 14.9548C10.8088 15.2116 13.6212 15.0894 13.8413 14.9548C14.0614 14.8204 14.0186 13.7687 13.9452 12.3015C13.8718 10.8342 13.3582 9.09185 12.9364 8.10145Z" fill="white"/>
<path d="M8.53671 8.10145C8.1149 7.11083 6.98784 5.55374 6.40922 5.46021C5.99353 5.39301 5.63884 5.41738 4.48938 5.46021C3.34 5.50305 3.25462 5.79651 3.24211 5.94334C3.22982 6.09011 3.63353 6.32232 3.96356 6.68909C4.23135 6.98669 4.89367 8.1376 5.2648 9.01847H1.99658L3.24182 10.2617H5.65804C5.76531 10.6743 5.85956 11.1089 5.92626 11.6451H2.52858L3.77375 12.8884H6.02015C6.06255 14.0516 5.98749 14.7197 6.18915 14.9548C6.40922 15.2116 9.22144 15.0895 9.44159 14.9548C9.66166 14.8204 9.6189 13.7688 9.54551 12.3016C9.47206 10.8342 8.9586 9.09185 8.53671 8.10145Z" fill="white"/>
</svg>
