<svg width="40" height="40" viewBox="0 0 40 40" fill="none" xmlns="http://www.w3.org/2000/svg">
<path d="M34.5833 1.25H5.4167C3.11548 1.25 1.25 3.11548 1.25 5.4167V34.5833C1.25 36.8845 3.11548 38.75 5.4167 38.75H34.5833C36.8845 38.75 38.75 36.8845 38.75 34.5833V5.4167C38.75 3.11548 36.8845 1.25 34.5833 1.25Z" stroke="#111111" stroke-width="2" stroke-linecap="round" stroke-linejoin="round"/>
<path d="M12.7083 15.8333C14.4342 15.8333 15.8333 14.4342 15.8333 12.7083C15.8333 10.9825 14.4342 9.58331 12.7083 9.58331C10.9824 9.58331 9.58331 10.9825 9.58331 12.7083C9.58331 14.4342 10.9824 15.8333 12.7083 15.8333Z" stroke="#111111" stroke-width="2" stroke-linecap="round" stroke-linejoin="round"/>
<path d="M38.75 26.25L28.3334 15.8333L5.41669 38.75" stroke="#111111" stroke-width="2" stroke-linecap="round" stroke-linejoin="round"/>
</svg>
