<svg width="20" height="20" viewBox="0 0 20 20" fill="none" xmlns="http://www.w3.org/2000/svg">
<path d="M3.50859 5.83334H3.53025C4.69275 5.83334 5.4165 5.00001 5.4165 3.95834C5.39484 2.89376 4.69275 2.08334 3.55234 2.08334C2.41192 2.08334 1.6665 2.89376 1.6665 3.95834C1.6665 5.00001 2.38984 5.83334 3.50859 5.83334ZM1.6665 7.08334H5.4165V17.9167H1.6665V7.08334ZM18.3332 11.0417C18.3332 8.85543 16.5611 7.08334 14.3748 7.08334C13.1028 7.08334 11.974 7.68584 11.2498 8.61834V7.08334H7.49984V17.9167H11.2498V11.6667C11.2498 10.7463 11.9961 10 12.9165 10C13.8369 10 14.5832 10.7463 14.5832 11.6667V17.9167H18.3332C18.3332 17.9167 18.3332 11.6479 18.3332 11.0417Z" fill="#0288D1"/>
</svg>
