<svg width="91" height="91" viewBox="0 0 91 91" fill="none" xmlns="http://www.w3.org/2000/svg">
<path d="M31 59V89" stroke="#012169" stroke-width="3" stroke-miterlimit="10" stroke-linecap="round"/>
<path d="M22 37V89" stroke="#012169" stroke-width="3" stroke-miterlimit="10" stroke-linecap="round"/>
<path d="M32.3813 19.4111C36.2582 19.4111 39.1532 16.0711 39.1532 11.9499V9.46121C39.1532 5.34001 36.2582 2 32.3813 2C28.5044 2 25.6094 5.34001 25.6094 9.46121V11.9499C25.6094 16.0711 28.5044 19.4111 32.3813 19.4111Z" stroke="#012169" stroke-width="3" stroke-miterlimit="10"/>
<path d="M48.827 46.4989V36.8247C48.827 28.1397 44.152 25.2157 37.218 25.2157H25.609C18.675 25.2157 14 28.1397 14 36.8247V50.3686C14 54.5188 15.6543 58.1079 19.8045 58.1079H21.7393" stroke="#012169" stroke-width="3" stroke-miterlimit="10"/>
<path d="M41.0879 52.3034H75.453C76.6864 52.3034 77.6031 53.4401 77.3443 54.6469L72.4588 68.3383C72.2121 69.1558 71.46 69.7169 70.6062 69.7169H45.7726" stroke="#C84E00" stroke-width="3" stroke-linecap="round" stroke-linejoin="round"/>
<path d="M72.0456 81.3258H50.7624C49.8651 81.3258 49.084 80.2496 48.8276 79.391L37.2186 42.6291H31.4141" stroke="#C84E00" stroke-width="3" stroke-linecap="round" stroke-linejoin="round"/>
<path d="M50.7627 89.0652H54.6324" stroke="#012169" stroke-width="3" stroke-miterlimit="10" stroke-linecap="round"/>
<path d="M66.2412 89.0652H70.1109" stroke="#012169" stroke-width="3" stroke-miterlimit="10" stroke-linecap="round"/>
</svg>
