<svg width="16" height="21" viewBox="0 0 16 21" fill="none" xmlns="http://www.w3.org/2000/svg">
<path d="M11.7282 0H2.10115C1.67094 0 1.32227 0.356325 1.32227 0.795977V20.2042C1.32227 20.6438 1.67094 21.0002 2.10115 21.0002H15.2215C15.6517 21.0002 16.0004 20.6438 16.0004 20.2042V4.3328L11.7282 0Z" fill="#DBDBDB"/>
<g style="mix-blend-mode:multiply" opacity="0.17">
<path d="M12.002 3.64415C12.002 4.1373 12.3931 4.5369 12.8755 4.5369H16.0009V4.3328L12.002 0.204102V3.64415Z" fill="#333333"/>
</g>
<path d="M11.7285 3.44004C11.7285 3.93319 12.1197 4.3328 12.6021 4.3328H16.0005L11.7285 0V3.44004Z" fill="#F2F2F2"/>
<path d="M3.36433 10.5001H13.9584C14.0571 10.5001 14.1372 10.5819 14.1372 10.6828V11.3337C14.1372 11.4345 14.0571 11.5164 13.9584 11.5164H3.36433C3.26566 11.5164 3.18555 11.4345 3.18555 11.3337V10.6828C3.18555 10.5819 3.26566 10.5001 3.36433 10.5001Z" fill="white"/>
<path d="M3.36433 12.3905H13.9584C14.0571 12.3905 14.1372 12.4724 14.1372 12.5732V13.2241C14.1372 13.3249 14.0571 13.4068 13.9584 13.4068H3.36433C3.26566 13.4068 3.18555 13.3249 3.18555 13.2241V12.5732C3.18555 12.4724 3.26566 12.3905 3.36433 12.3905Z" fill="white"/>
<path d="M3.36433 14.2809H13.9584C14.0571 14.2809 14.1372 14.3628 14.1372 14.4636V15.1145C14.1372 15.2153 14.0571 15.2972 13.9584 15.2972H3.36433C3.26566 15.2972 3.18555 15.2153 3.18555 15.1145V14.4636C3.18555 14.3628 3.26566 14.2809 3.36433 14.2809Z" fill="white"/>
<path d="M3.36433 16.1713H13.9584C14.0571 16.1713 14.1372 16.2532 14.1372 16.354V17.0049C14.1372 17.1057 14.0571 17.1876 13.9584 17.1876H3.36433C3.26566 17.1876 3.18555 17.1057 3.18555 17.0049V16.354C3.18555 16.2532 3.26566 16.1713 3.36433 16.1713Z" fill="white"/>
<path d="M3.36433 18.0615H13.9584C14.0571 18.0615 14.1372 18.1434 14.1372 18.2442V18.8951C14.1372 18.996 14.0571 19.0778 13.9584 19.0778H3.36433C3.26566 19.0778 3.18555 18.996 3.18555 18.8951V18.2442C3.18555 18.1434 3.26566 18.0615 3.36433 18.0615Z" fill="white"/>
<path d="M0 8.73985L1.32204 9.81369V8.73985H0Z" fill="#0066A5"/>
<path d="M9.75971 3.57963H0.991454C0.443854 3.57963 0 4.03322 0 4.59283V8.73969H9.75971C10.2416 8.73969 10.6323 8.34041 10.6323 7.84791V4.47125C10.6323 3.97875 10.2416 3.57946 9.75971 3.57946V3.57963Z" fill="#007EC4"/>
<path d="M3.82983 6.16306C3.82983 6.78201 3.41739 7.31536 2.57664 7.31536H1.6875V5.01076H2.57664C3.42072 5.01076 3.82983 5.54411 3.82983 6.16306ZM3.25638 6.16306C3.25638 5.82068 3.05015 5.54411 2.53476 5.54411H2.30284V6.78201H2.53476C3.05015 6.78201 3.25638 6.5022 3.25638 6.16306Z" fill="white"/>
<path d="M6.57831 6.16307C6.57831 6.82822 6.0177 7.36481 5.36699 7.36481C4.71628 7.36481 4.15234 6.82822 4.15234 6.16307C4.15234 5.49791 4.71612 4.95808 5.36699 4.95808C6.01786 4.95808 6.57831 5.49808 6.57831 6.16307ZM5.9855 6.16307C5.9855 5.81404 5.70837 5.53098 5.36699 5.53098C5.02562 5.53098 4.74848 5.8142 4.74848 6.16307C4.74848 6.51193 5.02562 6.7919 5.36699 6.7919C5.70837 6.7919 5.9855 6.5121 5.9855 6.16307Z" fill="white"/>
<path d="M8.64329 6.63708L8.94612 7.07819C8.72054 7.25603 8.47244 7.36465 8.18262 7.36465C7.45132 7.36465 6.90039 6.82805 6.90039 6.1629C6.90039 5.49775 7.45132 4.95791 8.18262 4.95791C8.4726 4.95791 8.7207 5.06653 8.94612 5.24761L8.64329 5.68548C8.5048 5.5801 8.35013 5.52417 8.18262 5.52417C7.79603 5.52417 7.50288 5.80398 7.50288 6.1629C7.50288 6.52182 7.79603 6.80163 8.18262 6.80163C8.35013 6.80163 8.5048 6.73905 8.64329 6.63692V6.63708Z" fill="white"/>
</svg>
