<svg width="17" height="17" viewBox="0 0 17 17" fill="none" xmlns="http://www.w3.org/2000/svg">
<path d="M0 2C0 0.89543 0.895431 0 2 0H15C16.1046 0 17 0.895431 17 2V15C17 16.1046 16.1046 17 15 17H2C0.89543 17 0 16.1046 0 15V2Z" fill="#B9B9B9"/>
<rect x="1" y="1" width="15" height="15" rx="2" fill="#70BFFF"/>
<path d="M15.8617 12.4902L13.0002 9.16195C12.9185 9.06744 12.8095 9.01031 12.6936 9.00126C12.5777 8.99222 12.4629 9.0319 12.3707 9.11284L9.18497 11.9118C9.08842 11.9973 9.02422 12.122 9.00559 12.26C8.98696 12.3981 9.01531 12.539 9.08482 12.6539L10.3629 14.7654C10.4068 14.8377 10.4652 14.8967 10.5333 14.9376C10.6014 14.9784 10.6771 14.9999 10.754 15H14.5693C14.9487 15 15.3126 14.8275 15.5809 14.5206C15.8493 14.2136 16 13.7973 16 13.3632V12.8721C15.9995 12.729 15.9498 12.5918 15.8617 12.4902Z" fill="#739F4D"/>
<path d="M11.9108 15.0582L6.41045 6.2602C6.36755 6.18528 6.31102 6.12304 6.24512 6.07817C6.17923 6.03331 6.1057 6.00699 6.03008 6.00121C5.95446 5.99544 5.87874 6.01035 5.80864 6.04482C5.73853 6.0793 5.67587 6.13243 5.62539 6.20021L1.12503 12.1987C1.04349 12.3096 0.998968 12.4527 1.00002 12.6006V13.2005C1.00002 13.6777 1.15807 14.1354 1.43939 14.4729C1.72072 14.8104 2.10228 15 2.50014 15L11.5008 16C11.592 15.9998 11.6814 15.9697 11.7594 15.9129C11.8374 15.8561 11.901 15.7749 11.9432 15.6779C11.9854 15.5809 12.0047 15.4718 11.999 15.3626C11.9933 15.2534 11.9628 15.1482 11.9108 15.0582Z" fill="#96C362"/>
<path d="M10.625 7.125C11.2118 7.125 11.6875 6.6493 11.6875 6.0625C11.6875 5.4757 11.2118 5 10.625 5C10.0382 5 9.5625 5.4757 9.5625 6.0625C9.5625 6.6493 10.0382 7.125 10.625 7.125Z" fill="#FFC571"/>
<path d="M1.5 3C1.5 2.17157 2.17157 1.5 3 1.5H14C14.8284 1.5 15.5 2.17157 15.5 3V14C15.5 14.8284 14.8284 15.5 14 15.5H3C2.17157 15.5 1.5 14.8284 1.5 14V3Z" stroke="#D9EEFF"/>
</svg>
