<svg width="38" height="48" viewBox="0 0 38 48" fill="none" xmlns="http://www.w3.org/2000/svg">
<path d="M35.6848 11.5416L26.7841 2.64097C25.728 1.57979 24.2914 0.984817 22.794 0.98919H7.8151C5.74252 0.98919 3.7545 1.81235 2.28917 3.27808C0.823469 4.74379 0 6.73133 0 8.80429V39.1957C0 41.2687 0.823525 43.2563 2.28917 44.7219C3.7545 46.1876 5.74242 47.0108 7.8151 47.0108H29.5243C31.5969 47.0108 33.5849 46.1877 35.0503 44.7219C36.516 43.2562 37.3394 41.2687 37.3394 39.1957V15.5336C37.3438 14.0353 36.7478 12.5975 35.6851 11.5414L35.6848 11.5416ZM34.734 39.1959C34.734 40.5777 34.1849 41.9031 33.208 42.88C32.2308 43.8572 30.9057 44.406 29.524 44.406H7.81473C6.43294 44.406 5.10791 43.8572 4.13065 42.88C3.15376 41.9031 2.60466 40.5777 2.60466 39.1959V8.80447C2.60466 7.42269 3.15379 6.09729 4.13065 5.1204C5.10791 4.14314 6.43294 3.59441 7.81473 3.59441H22.7937C23.5997 3.59441 24.3732 3.91422 24.943 4.48444L33.8437 13.3851V13.3847C34.4113 13.9564 34.7311 14.7283 34.7337 15.5341L34.734 39.1959ZM24.353 21.1235H24.3526C24.8541 21.6337 24.8501 22.4525 24.3442 22.9581C23.838 23.4636 23.0192 23.4665 22.5096 22.9646L19.9719 20.4269V25.9909C19.9719 26.7101 19.3886 27.2934 18.6694 27.2934C17.9501 27.2934 17.3668 26.7101 17.3668 25.9909V20.4552L14.8247 22.9712C14.313 23.4771 13.4877 23.472 12.9817 22.9603C12.4759 22.4483 12.4806 21.6233 12.9926 21.1171L17.7793 16.3806C18.2874 15.8754 19.1076 15.8754 19.6157 16.3806L24.353 21.1235ZM24.3137 30.6933C24.3137 31.4125 23.7304 31.9958 23.0112 31.9958H14.3275C13.6083 31.9958 13.025 31.4125 13.025 30.6933C13.025 29.9737 13.6083 29.3907 14.3275 29.3907H23.0112C23.7304 29.3907 24.3137 29.9737 24.3137 30.6933Z" fill="#012169"/>
</svg>
