<svg width="91" height="91" viewBox="0 0 91 91" fill="none" xmlns="http://www.w3.org/2000/svg">
<path d="M60.4732 32.261H29.9703L24.251 37.9349V43.6088C24.251 46.3252 26.3838 47.3914 29.0171 47.3914C31.6503 47.3914 33.7831 46.3252 33.7831 43.6088C33.7831 46.3252 36.8692 47.3914 39.5025 47.3914C42.1357 47.3914 45.2218 46.3252 45.2218 43.6088C45.2218 46.3252 48.3078 47.3914 50.9411 47.3914C53.5743 47.3914 56.6604 46.3252 56.6604 43.6088C56.6604 46.3252 58.7932 47.3914 61.4265 47.3914C64.0597 47.3914 66.1925 46.3252 66.1925 43.6088V37.9349L60.4732 32.261Z" stroke="#C84E00" stroke-width="3" stroke-miterlimit="10"/>
<path d="M33.7842 39.8262V43.6088" stroke="#C84E00" stroke-width="3" stroke-miterlimit="10"/>
<path d="M45.2217 39.8262V43.6088" stroke="#C84E00" stroke-width="3" stroke-miterlimit="10"/>
<path d="M56.6611 39.8262V43.6088" stroke="#C84E00" stroke-width="3" stroke-miterlimit="10"/>
<path d="M29.9717 32.2608V24.6956H60.4746V32.2608" stroke="#C84E00" stroke-width="3" stroke-miterlimit="10"/>
<path d="M28.0645 47.3914V66.3044H39.5031V54.9566H50.9417V66.3044H62.3803V47.3914" stroke="#C84E00" stroke-width="3" stroke-miterlimit="10"/>
<path d="M49.0349 88.9999L41.4092 81.4347L49.0349 73.8695" stroke="#012169" stroke-width="3" stroke-linecap="round" stroke-linejoin="round"/>
<path d="M41.4092 2L49.0349 9.56522L41.4092 17.1304" stroke="#012169" stroke-width="3" stroke-linecap="round" stroke-linejoin="round"/>
<path d="M34.8179 79.9312C19.8834 75.4961 9 61.7581 9 45.5C9 25.6531 25.2166 9.56519 45.2223 9.56519H49.0351" stroke="#012169" stroke-width="3" stroke-linecap="round" stroke-linejoin="round"/>
<path d="M55.6264 11.0687C70.5609 15.5038 81.4443 29.2394 81.4443 45.4999C81.4443 65.3468 65.2277 81.4347 45.222 81.4347H41.4092" stroke="#012169" stroke-width="3" stroke-linecap="round" stroke-linejoin="round"/>
</svg>
