<svg width="20" height="20" viewBox="0 0 20 20" fill="none" xmlns="http://www.w3.org/2000/svg">
<path d="M9.16797 3.33334H3.33464C2.89261 3.33334 2.46868 3.50894 2.15612 3.8215C1.84356 4.13406 1.66797 4.55798 1.66797 5.00001V16.6667C1.66797 17.1087 1.84356 17.5326 2.15612 17.8452C2.46868 18.1577 2.89261 18.3333 3.33464 18.3333H15.0013C15.4433 18.3333 15.8673 18.1577 16.1798 17.8452C16.4924 17.5326 16.668 17.1087 16.668 16.6667V10.8333" stroke="#012169" stroke-width="2" stroke-linecap="round" stroke-linejoin="round"/>
<path d="M15.418 2.08332C15.7495 1.7518 16.1991 1.56555 16.668 1.56555C17.1368 1.56555 17.5864 1.7518 17.918 2.08332C18.2495 2.41484 18.4357 2.86448 18.4357 3.33332C18.4357 3.80216 18.2495 4.2518 17.918 4.58332L10.0013 12.5L6.66797 13.3333L7.5013 9.99999L15.418 2.08332Z" stroke="#012169" stroke-width="2" stroke-linecap="round" stroke-linejoin="round"/>
</svg>
