<svg width="45" height="37" viewBox="0 0 45 37" fill="none" xmlns="http://www.w3.org/2000/svg">
<path d="M5.19024 36.9233H31.6552C32.2693 36.9223 32.8774 36.8121 33.4527 36.5971C35.8228 37.2524 38.359 36.8893 40.451 35.5962C42.5426 34.3032 44.0006 32.1966 44.4744 29.7832C44.9482 27.3703 44.3944 24.8686 42.9469 22.8809C41.499 20.8927 39.2881 19.5982 36.846 19.3089V5.26746C36.8445 3.8914 36.297 2.57162 35.3238 1.59891C34.3511 0.625704 33.0313 0.0782123 31.6552 0.0767212H5.19024C3.81418 0.0781774 2.4949 0.625704 1.52169 1.59891C0.548484 2.57164 0.00149113 3.8914 0 5.26746V31.7325C0.00145621 33.1085 0.548497 34.4278 1.52169 35.401C2.4949 36.3742 3.81418 36.9217 5.19024 36.9232V36.9233ZM5.19024 34.8289C4.36943 34.8279 3.58255 34.5012 3.00213 33.9207C2.4216 33.3406 2.09542 32.5533 2.09445 31.7326V24.8274L10.5034 16.0899C10.9636 15.6138 11.5926 15.3381 12.2547 15.3225C12.9168 15.307 13.558 15.5531 14.04 16.0074L26.9656 28.2349C27.0083 30.7817 28.1504 33.1864 30.0978 34.8289L5.19024 34.8289ZM27.3011 25.668L22.7302 21.3441L24.2427 19.8657C24.7058 19.4108 25.3266 19.1531 25.9755 19.1468C26.6245 19.141 27.2502 19.3866 27.7215 19.8326L29.702 21.6956C28.5623 22.7824 27.7337 24.1536 27.3013 25.668L27.3011 25.668ZM42.5454 28.0819H42.5459C42.5459 29.8715 41.8348 31.5874 40.5699 32.8529C39.3045 34.1178 37.5887 34.8289 35.7989 34.8289C34.0098 34.8289 32.2939 34.1178 31.0285 32.8529C29.763 31.5874 29.0525 29.8716 29.0525 28.0819C29.0525 26.2928 29.7631 24.5769 31.0285 23.3114C32.2938 22.0459 34.0097 21.3354 35.7989 21.3354C37.5877 21.3374 39.3025 22.0489 40.5674 23.3139C41.8324 24.5784 42.5434 26.2933 42.5459 28.0819H42.5454ZM5.19024 2.1711H31.6552C32.476 2.17207 33.2633 2.49873 33.8438 3.07878C34.4239 3.65931 34.7505 4.44664 34.7515 5.26738V19.3088C33.5715 19.4491 32.4328 19.8277 31.4038 20.4213L29.1564 18.3064C28.292 17.49 27.1445 17.0401 25.9552 17.0511C24.766 17.0623 23.6273 17.5341 22.7789 18.3676L21.2073 19.9033L15.4796 14.4853C14.5957 13.6538 13.4196 13.2034 12.2061 13.2315C10.9926 13.2601 9.83878 13.7649 8.99418 14.6368L2.09437 21.8065V5.26739C2.09534 4.44659 2.42153 3.65934 3.00206 3.07879C3.58259 2.49874 4.36942 2.17208 5.19016 2.17111L5.19024 2.1711Z" fill="#012169"/>
<path d="M26.1543 12.8901C27.1999 12.8905 28.2031 12.4751 28.9425 11.7353C29.6822 10.9961 30.0977 9.9928 30.0977 8.94715C30.0977 7.90112 29.6822 6.89834 28.9425 6.15899C28.2032 5.41926 27.2004 5.00375 26.1543 5.00375C25.1083 5.00375 24.1055 5.41926 23.3662 6.15899C22.6264 6.89824 22.2109 7.9015 22.2109 8.94715C22.2124 9.99269 22.6284 10.9946 23.3676 11.7338C24.1064 12.4731 25.1088 12.8891 26.1543 12.89L26.1543 12.8901ZM26.1543 7.0984C26.6446 7.0984 27.1149 7.29304 27.4616 7.6401C27.8081 7.98668 28.0028 8.45653 28.0033 8.94683C28.0033 9.43707 27.8086 9.90742 27.4616 10.254C27.115 10.6011 26.6451 10.7957 26.1548 10.7957C25.6641 10.7957 25.1942 10.6011 24.8472 10.2545C24.5007 9.90795 24.306 9.43762 24.306 8.94731C24.3065 8.45755 24.5016 7.98768 24.8477 7.64108C25.1943 7.29451 25.6642 7.09938 26.1544 7.09841L26.1543 7.0984Z" fill="#012169"/>
<path d="M34.753 24.5705V27.0339H32.2897C31.7111 27.0339 31.2422 27.5027 31.2422 28.0809C31.2422 28.6594 31.7111 29.1283 32.2897 29.1283H34.753V31.5917C34.753 32.1703 35.2219 32.6392 35.8 32.6392C36.3786 32.6392 36.8475 32.1703 36.8475 31.5917V29.1283H39.3108C39.8894 29.1283 40.3583 28.6594 40.3583 28.0809C40.3583 27.5028 39.8894 27.0339 39.3108 27.0339H36.8475V24.5705C36.8475 23.9919 36.3786 23.523 35.8 23.523C35.2219 23.523 34.753 23.9919 34.753 24.5705Z" fill="#012169"/>
</svg>
