<svg width="33" height="33" viewBox="0 0 33 33" fill="none" xmlns="http://www.w3.org/2000/svg">
<circle cx="16.5" cy="16.5" r="16.5" fill="#C84E00"/>
<path d="M21.168 9.49999C21.3868 9.28112 21.6467 9.1075 21.9326 8.98905C22.2186 8.8706 22.5251 8.80963 22.8346 8.80963C23.1442 8.80963 23.4507 8.8706 23.7366 8.98905C24.0226 9.1075 24.2824 9.28112 24.5013 9.49999C24.7202 9.71886 24.8938 9.97869 25.0122 10.2647C25.1307 10.5506 25.1917 10.8571 25.1917 11.1667C25.1917 11.4762 25.1307 11.7827 25.0122 12.0686C24.8938 12.3546 24.7202 12.6145 24.5013 12.8333L13.2513 24.0833L8.66797 25.3333L9.91797 20.75L21.168 9.49999Z" stroke="white" stroke-width="2" stroke-linecap="round" stroke-linejoin="round"/>
</svg>
