<svg width="91" height="91" viewBox="0 0 91 91" fill="none" xmlns="http://www.w3.org/2000/svg">
<path d="M72.9873 52.2683V29.0675" stroke="#C84E00" stroke-width="3" stroke-miterlimit="10"/>
<path d="M65.2547 36.8011H53.6543V46.4681H65.2547V36.8011Z" stroke="#C84E00" stroke-width="3" stroke-miterlimit="10"/>
<path d="M55.5859 22.1458V26.0125" stroke="#C84E00" stroke-width="3" stroke-miterlimit="10"/>
<path d="M67.1865 22.1458V26.0125" stroke="#C84E00" stroke-width="3" stroke-miterlimit="10"/>
<path d="M30.4523 11.667L22.7188 19.4006V25.2008C22.7188 27.9776 24.8817 29.0676 27.5522 29.0676C30.2227 29.0676 32.3857 27.9776 32.3857 25.2008C32.3857 27.9776 35.5154 29.0676 38.1859 29.0676C40.8564 29.0676 43.9861 27.9776 43.9861 25.2008C43.9861 27.9776 47.1158 29.0676 49.7863 29.0676C52.4568 29.0676 55.5865 27.9776 55.5865 25.2008C55.5865 27.9776 58.7162 29.0676 61.3867 29.0676C64.0572 29.0676 67.1869 27.9776 67.1869 25.2008C67.1869 27.9776 69.3499 29.0676 72.0204 29.0676C74.6909 29.0676 76.8538 27.9776 76.8538 25.2008V19.4006L69.1203 11.667H30.4523Z" stroke="#C84E00" stroke-width="3" stroke-miterlimit="10"/>
<path d="M36.252 50.3349V36.8011H45.9189V53.2543" stroke="#C84E00" stroke-width="3" stroke-miterlimit="10"/>
<path d="M26.5869 29.0675V51.7656" stroke="#C84E00" stroke-width="3" stroke-miterlimit="10"/>
<path d="M30.4531 11.667V2H69.1211V11.667" stroke="#C84E00" stroke-width="3" stroke-miterlimit="10"/>
<path d="M31.002 77.4025C31.7415 76.663 32.5028 75.4691 34.8687 75.4691H63.3211C65.4696 75.4691 77.2851 63.6198 78.7883 61.9353C80.2335 60.3161 86.6693 50.6443 88.4552 46.4681C87.3339 44.9577 84.3033 43.7034 80.7217 44.5348C77.3044 45.3274 75.2937 47.7829 72.9881 52.2683L64.5681 56.6402" stroke="#012169" stroke-width="3" stroke-linejoin="round"/>
<path d="M42.0532 63.8686H59.4538C67.1873 63.8686 67.1873 54.2016 59.4538 54.2016H47.8534C46.2414 54.2016 43.2229 50.3348 40.6684 50.3348H31.0014C28.3889 50.3348 25.1432 52.4543 23.2678 54.2016C20.3701 57.0993 15.3965 61.7975 15.3965 61.7975" stroke="#012169" stroke-width="3" stroke-linecap="round" stroke-linejoin="round"/>
<path d="M11.6672 58.0656L2 67.7328L23.2672 89L32.9344 79.3328L11.6672 58.0656Z" stroke="#012169" stroke-width="3" stroke-linejoin="round"/>
<path d="M11.667 67.7355L15.5338 71.6023" stroke="#012169" stroke-width="3" stroke-linejoin="round"/>
<path d="M32.3857 22.1458V26.0125" stroke="#C84E00" stroke-width="3" stroke-miterlimit="10"/>
<path d="M43.9863 22.1458V26.0125" stroke="#C84E00" stroke-width="3" stroke-miterlimit="10"/>
</svg>
