<svg width="8" height="8" viewBox="0 0 8 8" fill="none" xmlns="http://www.w3.org/2000/svg">
<path d="M5.35461 4.00018L7.71939 1.63558C8.09357 1.26141 8.09357 0.654835 7.71939 0.280853C7.3456 -0.0931294 6.73865 -0.0931294 6.36486 0.280853L4.00007 2.64583L1.63529 0.280853C1.2615 -0.0931294 0.654543 -0.0931294 0.280752 0.280853C-0.0934214 0.655027 -0.0934214 1.2616 0.280752 1.63558L2.64535 4.00018L0.280752 6.36477C-0.0934214 6.73894 -0.0934214 7.34552 0.280752 7.7195C0.467552 7.90668 0.712978 7.99998 0.95802 7.99998C1.20287 7.99998 1.44849 7.90668 1.63529 7.7195L4.00007 5.3549L6.36486 7.71969C6.55185 7.90687 6.79708 8.00018 7.04213 8.00018C7.28717 8.00018 7.53259 7.90687 7.71939 7.71969C8.09357 7.34552 8.09357 6.73894 7.71939 6.36496L5.35461 4.00018Z" fill="#58595b"/>
</svg>
