<svg width="174" height="174" viewBox="0 0 174 174" fill="none" xmlns="http://www.w3.org/2000/svg">
<path d="M153.5 1.5H20.5C10.0066 1.5 1.5 10.0066 1.5 20.5V153.5C1.5 163.993 10.0066 172.5 20.5 172.5H153.5C163.993 172.5 172.5 163.993 172.5 153.5V20.5C172.5 10.0066 163.993 1.5 153.5 1.5Z" stroke="#111111" stroke-width="2" stroke-linecap="round" stroke-linejoin="round"/>
<path d="M53.75 68C61.6201 68 68 61.6201 68 53.75C68 45.8799 61.6201 39.5 53.75 39.5C45.8799 39.5 39.5 45.8799 39.5 53.75C39.5 61.6201 45.8799 68 53.75 68Z" stroke="#111111" stroke-width="2" stroke-linecap="round" stroke-linejoin="round"/>
<path d="M172.5 115.5L125 68L20.5 172.5" stroke="#111111" stroke-width="2" stroke-linecap="round" stroke-linejoin="round"/>
</svg>
