<svg width="99" height="99" viewBox="0 0 99 99" fill="none" xmlns="http://www.w3.org/2000/svg">
<path d="M2.89058 55.8556C2.89058 34.4185 20.3355 17.0425 41.8577 17.0425C56.3106 17.0425 68.9176 24.8718 75.6521 36.5097C70.2462 21.528 55.8643 10.8195 38.9671 10.8195C17.4449 10.8296 0 28.2056 0 49.6427C0 56.684 1.88649 63.2909 5.17262 68.9886C3.69183 64.887 2.88044 60.4723 2.88044 55.8657L2.89058 55.8556Z" fill="white"/>
<path d="M56.1484 95.8911C34.6262 95.8911 17.1813 78.5152 17.1813 57.0781C17.1813 42.6823 25.0417 30.1251 36.7257 23.4273C21.6845 28.8118 10.9336 43.1369 10.9336 59.9572C10.9336 81.3943 28.3785 98.7703 49.9007 98.7703C56.9699 98.7703 63.603 96.8913 69.3234 93.608C65.2055 95.0829 60.7733 95.881 56.1484 95.881V95.8911Z" fill="white"/>
<path d="M96.1092 42.9145C96.1092 64.3516 78.6643 81.7276 57.1421 81.7276C42.6892 81.7276 30.0822 73.8983 23.3477 62.2604C28.7536 77.232 43.1355 87.9506 60.0327 87.9506C81.5549 87.9506 98.9998 70.5746 98.9998 49.1375C98.9998 42.0962 97.1133 35.4893 93.817 29.7916C95.2978 33.8932 96.0991 38.3079 96.0991 42.9145H96.1092Z" fill="white"/>
<path d="M42.8512 2.87916C64.3734 2.87916 81.8183 20.2551 81.8183 41.6922C81.8183 56.088 73.958 68.6451 62.2739 75.3531C77.3151 69.9685 88.066 55.6435 88.066 38.813C88.066 17.376 70.611 0 49.099 0C42.0297 0 35.3966 1.87903 29.6763 5.15217C33.7941 3.67724 38.2263 2.87916 42.8512 2.87916Z" fill="white"/>
<path d="M30.4883 49.0972C30.4883 50.0468 30.5593 50.9762 30.6911 51.8855C31.6445 58.3408 35.8536 63.7355 41.6043 66.3823V59.9269C38.9775 58.0074 37.0808 55.1687 36.381 51.8855H46.8784V67.9279C47.7608 68.0592 48.6736 68.1199 49.5966 68.1199C50.4587 68.1199 51.3106 68.0693 52.1423 67.9582V51.8956H62.8019C62.092 55.2495 60.1142 58.1388 57.4062 60.0582V66.4732C63.2482 63.8668 67.5283 58.4216 68.4918 51.8956C68.6237 50.9863 68.7048 50.0569 68.7048 49.1073C68.7048 48.2789 68.644 47.4606 68.5425 46.6525C67.6906 39.9849 63.3598 34.3883 57.4163 31.7415V38.1564C60.2258 40.1365 62.234 43.1672 62.8831 46.6525H52.1524V30.2463C51.3208 30.1352 50.4688 30.0746 49.6067 30.0746C48.6837 30.0746 47.7811 30.1352 46.8885 30.2665C45.0325 30.5191 43.2576 31.0545 41.6246 31.8122C35.7725 34.4994 31.5127 40.0456 30.6607 46.6525C30.5593 47.4505 30.4984 48.2688 30.4984 49.1073L30.4883 49.0972ZM36.3202 46.6424C36.949 43.2177 38.8963 40.2476 41.6043 38.2676C43.146 37.1361 44.9311 36.3279 46.8682 35.9238V46.6424H36.31H36.3202Z" fill="white"/>
</svg>
