<svg width="243" height="55" viewBox="0 0 243 55" fill="none" xmlns="http://www.w3.org/2000/svg">
<path d="M1.60703 31.1031C1.60703 19.1659 11.3056 9.49012 23.2709 9.49012C31.3061 9.49012 38.315 13.8498 42.0591 20.3304C39.0537 11.9878 31.058 6.02484 21.6639 6.02484C9.69857 6.03047 0 15.7062 0 27.6434C0 31.5644 1.0488 35.2434 2.87574 38.4162C2.05249 36.1322 1.60139 33.6739 1.60139 31.1087L1.60703 31.1031Z" fill="#C84E00"/>
<path d="M31.2159 53.3967C19.2506 53.3967 9.55199 43.721 9.55199 31.7838C9.55199 23.7675 13.922 16.7751 20.4178 13.0454C12.0556 16.0438 6.07855 24.0207 6.07855 33.387C6.07855 45.3242 15.7771 55 27.7425 55C31.6726 55 35.3603 53.9537 38.5406 52.1254C36.2513 52.9467 33.7871 53.3911 31.2159 53.3911V53.3967Z" fill="#012169"/>
<path d="M53.4324 23.8969C53.4324 35.8341 43.7338 45.5098 31.7684 45.5098C23.7333 45.5098 16.7244 41.1501 12.9803 34.6696C15.9857 43.0065 23.9814 48.9751 33.3755 48.9751C45.3408 48.9751 55.0394 39.2994 55.0394 27.3621C55.0394 23.4412 53.9906 19.7622 52.158 16.5894C52.9813 18.8733 53.4267 21.3317 53.4267 23.8969H53.4324Z" fill="#C84E00"/>
<path d="M23.8235 1.60325C35.7888 1.60325 45.4874 11.279 45.4874 23.2162C45.4874 31.2325 41.1174 38.2249 34.6216 41.9602C42.9838 38.9618 48.9609 30.985 48.9609 21.613C48.9609 9.67577 39.2567 0 27.297 0C23.3668 0 19.6791 1.04633 16.4988 2.86898C18.7882 2.04766 21.2523 1.60325 23.8235 1.60325Z" fill="#012169"/>
<path d="M16.95 27.3397C16.95 27.8685 16.9894 28.386 17.0627 28.8923C17.5928 32.4869 19.9328 35.4909 23.13 36.9648V33.3701C21.6695 32.3013 20.6151 30.7206 20.226 28.8923H26.0621V37.8255C26.5527 37.8986 27.0602 37.9324 27.5733 37.9324C28.0526 37.9324 28.5262 37.9043 28.9886 37.8424V28.8979H34.9149C34.5202 30.7656 33.4206 32.3744 31.9151 33.4433V37.0154C35.163 35.5641 37.5425 32.532 38.0782 28.8979C38.1515 28.3916 38.1966 27.8741 38.1966 27.3453C38.1966 26.884 38.1628 26.4283 38.1064 25.9783C37.6327 22.2655 35.225 19.149 31.9207 17.6751V21.2473C33.4826 22.3499 34.5991 24.0375 34.96 25.9783H28.9942V16.8426C28.5318 16.7807 28.0582 16.7469 27.5789 16.7469C27.0658 16.7469 26.5639 16.7807 26.0677 16.8538C25.0359 16.9945 24.0491 17.2926 23.1413 17.7145C19.8877 19.2109 17.5195 22.2993 17.0458 25.9783C16.9894 26.4227 16.9556 26.8784 16.9556 27.3453L16.95 27.3397ZM20.1922 25.9727C20.5418 24.0657 21.6244 22.4118 23.13 21.3092C23.9871 20.6791 24.9795 20.2291 26.0565 20.0041V25.9727H20.1866H20.1922Z" fill="#012169"/>
<path d="M84.3663 36.6611H79.6918L77.5491 32.7626H66.2322L64.1572 36.6611H60.0071L70.1116 18.8453H74.1264L84.3719 36.6611H84.3663ZM75.818 29.5505L71.9781 22.2993L67.9971 29.5505H75.818Z" fill="#012169"/>
<path d="M105.963 36.6611H87.5184V18.8453H105.793V21.883H91.6741V25.8546H99.9122V28.8923H91.6741V33.3139H105.968V36.6611H105.963Z" fill="#012169"/>
<path d="M132.228 36.6611H126.273L119.073 29.9274H115.125V36.6611H111.043V18.8453H126.341C129.019 18.8453 130.356 19.9985 130.356 22.2993V26.479C130.356 28.206 129.662 29.2749 128.281 29.6911C127.751 29.8543 126.318 29.933 123.989 29.933L132.228 36.6667V36.6611ZM126.346 25.4721V23.3344C126.346 22.7325 126.172 22.3443 125.828 22.1587C125.574 21.9955 125.123 21.9168 124.48 21.9168H115.137V26.8897H124.48C125.123 26.8897 125.574 26.8109 125.828 26.6478C126.172 26.4621 126.346 26.074 126.346 25.4721Z" fill="#012169"/>
<path d="M140.359 36.6611H136.209V18.8453H140.359V36.6611Z" fill="#012169"/>
<path d="M166.28 32.4476C166.28 34.1071 165.958 35.221 165.31 35.8004C164.661 36.3742 163.5 36.6611 161.814 36.6611H150.773C148.952 36.6611 147.751 36.3404 147.176 35.6935C146.601 35.0466 146.307 33.809 146.307 31.9638L149.973 31.2044V33.3083H162.603V29.2355H151.461C149.775 29.2355 148.619 28.9486 147.982 28.3748C147.351 27.801 147.029 26.6815 147.029 25.022V23.0531C147.029 21.3992 147.345 20.2798 147.982 19.706C148.619 19.1322 149.775 18.8453 151.461 18.8453H161.6C163.308 18.8453 164.475 19.1378 165.096 19.7285C165.716 20.3135 166.032 21.4499 166.032 23.1319L162.361 23.9926V21.9561H150.661V25.7871H161.803C163.489 25.7871 164.65 26.074 165.299 26.6478C165.947 27.2216 166.268 28.341 166.268 29.9949V32.4476H166.28Z" fill="#012169"/>
<path d="M172.37 18.8453H175.347V26.1302H189.432V18.8453H192.41V36.6611H189.432V28.5829H175.347V36.6611H172.37V18.8453Z" fill="#C84E00"/>
<path d="M202.063 34.1746H215.077V18.8453H218.021V32.4476C218.021 35.7272 217.084 36.6611 213.87 36.6611H203.281C200.101 36.6611 199.091 35.7666 199.091 32.4476V18.8453H202.069V34.1746H202.063Z" fill="#C84E00"/>
<path d="M224.731 18.8453H239.126C241.72 18.8453 242.899 19.8129 242.899 22.2993V24.3695C242.899 25.8546 242.414 27.0978 239.921 27.4072C241.929 27.6491 243 28.8586 243 30.895V33.1733C243 35.5529 241.337 36.6611 238.055 36.6611H224.731V18.8453ZM239.854 22.7831C239.854 21.5061 239.301 21.2305 238.021 21.2305H227.708V26.164H238.021C239.301 26.164 239.854 25.8208 239.854 24.5776V22.7831ZM239.995 30.6193C239.995 28.9655 239.476 28.4817 238.021 28.4817H227.708V34.214H238.021C239.51 34.214 239.995 33.7302 239.995 32.1045V30.6193Z" fill="#C84E00"/>
</svg>
