<svg width="467" height="479" viewBox="0 0 467 479" fill="none" xmlns="http://www.w3.org/2000/svg">
<g opacity="0.05">
<path d="M-92.182 324.978C-92.182 200.253 9.31577 99.1568 134.536 99.1568C218.626 99.1568 291.975 144.709 331.158 212.42C299.706 125.254 216.029 62.9501 117.718 62.9501C-7.50219 63.0089 -109 164.106 -109 288.831C-109 329.798 -98.0241 368.238 -78.9047 401.389C-87.5202 377.525 -92.2411 351.84 -92.2411 325.037L-92.182 324.978Z" fill="#C84E00"/>
<path d="M217.68 557.912C92.46 557.912 -9.0378 456.816 -9.0378 332.091C-9.0378 248.333 36.6952 175.273 104.675 136.304C17.1628 167.632 -45.3882 250.978 -45.3882 348.842C-45.3882 473.567 56.1096 574.664 181.33 574.664C222.46 574.664 261.053 563.731 294.334 544.629C270.376 553.21 244.589 557.854 217.68 557.854V557.912Z" fill="#012169"/>
<path d="M450.182 249.685C450.182 374.41 348.684 475.507 223.464 475.507C139.375 475.507 66.0247 429.954 26.8418 362.243C58.2943 449.351 141.971 511.713 240.282 511.713C365.502 511.713 467 410.617 467 285.892C467 244.924 456.024 206.484 436.846 173.333C445.461 197.197 450.123 222.883 450.123 249.685H450.182Z" fill="#C84E00"/>
<path d="M140.319 16.7515C265.539 16.7515 367.037 117.848 367.037 242.573C367.037 326.33 321.304 399.39 253.324 438.418C340.836 407.09 403.387 323.744 403.387 225.822C403.387 101.097 301.83 0 176.669 0C135.539 0 96.9464 10.9325 63.6646 29.9763C87.6228 21.3949 113.41 16.7515 140.319 16.7515Z" fill="#012169"/>
</g>
</svg>
