<svg width="166" height="37" viewBox="0 0 166 37" fill="none" xmlns="http://www.w3.org/2000/svg">
<g clip-path="url(#clip0_328_6326)">
<path d="M1.09781 20.9238C1.09781 12.8933 7.72317 6.38416 15.897 6.38416C21.3861 6.38416 26.174 9.31707 28.7317 13.6767C26.6786 8.06443 21.2166 4.05298 14.7992 4.05298C6.62536 4.05676 0 10.5659 0 18.5964C0 21.2341 0.716464 23.7091 1.9645 25.8435C1.40211 24.307 1.09396 22.6533 1.09396 20.9276L1.09781 20.9238Z" fill="white"/>
<path d="M21.3244 35.9216C13.1505 35.9216 6.52515 29.4124 6.52515 21.3819C6.52515 15.9892 9.51041 11.2852 13.9479 8.77612C8.23542 10.7932 4.15234 16.1595 4.15234 22.4605C4.15234 30.491 10.7777 37.0001 18.9516 37.0001C21.6364 37.0001 24.1555 36.2962 26.328 35.0663C24.7642 35.6188 23.0808 35.9178 21.3244 35.9178V35.9216Z" fill="white"/>
<path d="M36.5011 16.0761C36.5011 24.1066 29.8757 30.6157 21.7019 30.6157C16.2129 30.6157 11.4249 27.6828 8.86719 23.3232C10.9203 28.9317 16.3824 32.9469 22.7997 32.9469C30.9736 32.9469 37.5989 26.4377 37.5989 18.4073C37.5989 15.7695 36.8825 13.2946 35.6306 11.1602C36.193 12.6966 36.4973 14.3504 36.4973 16.0761H36.5011Z" fill="white"/>
<path d="M16.2752 1.07855C24.449 1.07855 31.0744 7.58771 31.0744 15.6182C31.0744 21.0109 28.0891 25.7149 23.6517 28.2278C29.3641 26.2107 33.4472 20.8444 33.4472 14.5396C33.4472 6.50915 26.818 0 18.648 0C15.9632 0 13.444 0.703897 11.2715 1.93004C12.8354 1.37752 14.5187 1.07855 16.2752 1.07855Z" fill="white"/>
<path d="M11.5791 18.3921C11.5791 18.7479 11.6061 19.096 11.6561 19.4366C12.0182 21.8548 13.6168 23.8757 15.8008 24.8672V22.449C14.8032 21.73 14.0829 20.6665 13.8171 19.4366H17.8039V25.4462C18.139 25.4954 18.4857 25.5181 18.8362 25.5181C19.1636 25.5181 19.4872 25.4992 19.803 25.4576V19.4404H23.8514C23.5818 20.6968 22.8307 21.7792 21.8022 22.4982V24.9013C24.0209 23.9249 25.6464 21.8851 26.0124 19.4404C26.0625 19.0998 26.0933 18.7516 26.0933 18.3959C26.0933 18.0856 26.0702 17.7791 26.0316 17.4763C25.7081 14.9786 24.0633 12.882 21.806 11.8905V14.2936C22.873 15.0354 23.6357 16.1707 23.8822 17.4763H19.8069V11.3304C19.491 11.2888 19.1675 11.2661 18.84 11.2661C18.4895 11.2661 18.1467 11.2888 17.8077 11.338C17.1028 11.4326 16.4287 11.6332 15.8085 11.917C13.586 12.9237 11.9681 15.0013 11.6446 17.4763C11.6061 17.7753 11.583 18.0818 11.583 18.3959L11.5791 18.3921ZM13.794 17.4725C14.0328 16.1896 14.7724 15.077 15.8008 14.3353C16.3863 13.9114 17.0643 13.6087 17.8 13.4573V17.4725H13.7901H13.794Z" fill="white"/>
<path d="M57.6326 24.6629H54.4394L52.9756 22.0403H45.2447L43.8272 24.6629H40.9922L47.8949 12.6777H50.6375L57.6365 24.6629H57.6326ZM51.7931 19.8794L49.1699 15.0014L46.4504 19.8794H51.7931Z" fill="white"/>
<path d="M72.3859 24.6629H59.7861V12.6777H72.2703V14.7213H62.625V17.3931H68.2527V19.4367H62.625V22.4112H72.3897V24.6629H72.3859Z" fill="white"/>
<path d="M90.3282 24.6629H86.2606L81.3416 20.133H78.6453V24.6629H75.8564V12.6777H86.3068C88.1365 12.6777 89.0494 13.4535 89.0494 15.0014V17.8132C89.0494 18.975 88.5756 19.694 87.6319 19.974C87.2698 20.0838 86.2914 20.1368 84.7005 20.1368L90.3282 24.6667V24.6629ZM86.3106 17.1357V15.6977C86.3106 15.2927 86.1912 15.0316 85.9563 14.9067C85.7829 14.797 85.4748 14.744 85.0356 14.744H78.653V18.0894H85.0356C85.4748 18.0894 85.7829 18.0364 85.9563 17.9267C86.1912 17.8018 86.3106 17.5407 86.3106 17.1357Z" fill="white"/>
<path d="M95.8829 24.6629H93.0479V12.6777H95.8829V24.6629Z" fill="white"/>
<path d="M113.59 21.9325C113.59 23.0489 113.37 23.7982 112.927 24.188C112.484 24.574 111.691 24.767 110.539 24.767H102.997C101.753 24.767 100.932 24.5513 100.539 24.1161C100.147 23.6809 99.9463 22.8483 99.9463 21.6071L102.45 21.0962V22.5115H111.078V19.7716H103.467C102.315 19.7716 101.526 19.5786 101.09 19.1926C100.659 18.8066 100.439 18.0535 100.439 16.9371V15.6126C100.439 14.5 100.655 13.7469 101.09 13.3609C101.526 12.9749 102.315 12.7819 103.467 12.7819H110.393C111.56 12.7819 112.357 12.9786 112.781 13.376C113.205 13.7696 113.42 14.534 113.42 15.6656L110.913 16.2446V14.8746H102.92V17.4518H110.531C111.683 17.4518 112.477 17.6448 112.92 18.0308C113.363 18.4168 113.582 19.1699 113.582 20.2825V21.9325H113.59Z" fill="white"/>
<path d="M117.75 12.6777H119.784V17.5785H129.406V12.6777H131.44V24.6629H129.406V19.2285H119.784V24.6629H117.75V12.6777Z" fill="white"/>
<path d="M138.035 22.9902H146.925V12.6777H148.936V21.8284C148.936 24.0347 148.296 24.6629 146.101 24.6629H138.867C136.694 24.6629 136.005 24.0612 136.005 21.8284V12.6777H138.039V22.9902H138.035Z" fill="white"/>
<path d="M153.52 12.6777H163.354C165.125 12.6777 165.931 13.3286 165.931 15.0014V16.394C165.931 17.3931 165.599 18.2294 163.897 18.4376C165.268 18.6003 166 19.414 166 20.7839V22.3166C166 23.9174 164.864 24.6629 162.622 24.6629H153.52V12.6777ZM163.85 15.3268C163.85 14.4678 163.473 14.2823 162.599 14.2823H155.553V17.6012H162.599C163.473 17.6012 163.85 17.3704 163.85 16.534V15.3268ZM163.947 20.5985C163.947 19.4859 163.592 19.1604 162.599 19.1604H155.553V23.0167H162.599C163.616 23.0167 163.947 22.6912 163.947 21.5975V20.5985Z" fill="white"/>
</g>
<defs>
<clipPath id="clip0_328_6326">
<rect width="166" height="37" fill="white"/>
</clipPath>
</defs>
</svg>
